<svg width="641" height="372" viewBox="0 0 641 372" fill="none" xmlns="http://www.w3.org/2000/svg">
<path d="M9.24966 340.789V338.059C9.24966 337.006 8.93766 336.187 8.31366 335.589C7.68966 334.991 6.87066 334.692 5.85666 334.692C4.84266 334.692 4.02366 334.991 3.39966 335.589C2.77566 336.187 2.46366 337.019 2.46366 338.072V340.802C2.46366 341.868 2.77566 342.7 3.39966 343.298C4.02366 343.896 4.84266 344.195 5.85666 344.195C6.87066 344.195 7.68966 343.896 8.31366 343.298C8.93766 342.7 9.24966 341.868 9.24966 340.802V340.789ZM5.84366 336.317C6.37666 336.317 6.79266 336.473 7.09166 336.785C7.39066 337.084 7.53366 337.526 7.53366 338.098V340.815C7.53366 341.361 7.37766 341.79 7.07866 342.115C6.77966 342.427 6.36366 342.583 5.83066 342.583C5.29766 342.583 4.88166 342.427 4.58266 342.115C4.28366 341.816 4.14066 341.374 4.14066 340.815V338.098C4.14066 337.539 4.28366 337.097 4.58266 336.798C4.88166 336.486 5.28466 336.33 5.80466 336.33L5.84366 336.317Z" fill="#514B7B"/>
<path d="M41.527 367.789V365.059C41.527 364.006 41.215 363.187 40.591 362.589C39.967 361.991 39.148 361.692 38.134 361.692C37.12 361.692 36.301 361.991 35.677 362.589C35.053 363.187 34.741 364.019 34.741 365.072V367.802C34.741 368.868 35.053 369.7 35.677 370.298C36.301 370.896 37.12 371.195 38.134 371.195C39.148 371.195 39.967 370.896 40.591 370.298C41.215 369.7 41.527 368.868 41.527 367.802V367.789ZM38.121 363.317C38.654 363.317 39.07 363.473 39.369 363.785C39.668 364.084 39.811 364.526 39.811 365.098V367.815C39.811 368.361 39.655 368.79 39.356 369.115C39.057 369.427 38.641 369.583 38.108 369.583C37.575 369.583 37.159 369.427 36.86 369.115C36.561 368.816 36.418 368.374 36.418 367.815V365.098C36.418 364.539 36.561 364.097 36.86 363.798C37.159 363.486 37.562 363.33 38.082 363.33L38.121 363.317ZM46.1773 371.169C47.1263 371.169 47.9193 370.857 48.5693 370.233C49.2193 369.609 49.5443 368.855 49.5443 367.958C49.5443 367.113 49.2453 366.398 48.6603 365.813C48.0753 365.228 47.3603 364.929 46.5153 364.929C46.3723 364.929 46.2293 364.942 46.0863 364.955C45.9433 364.968 45.8133 364.994 45.6963 365.033L47.9583 361.848H45.9823L43.6813 365.306C43.4213 365.696 43.2133 366.138 43.0443 366.619C42.8883 367.087 42.8103 367.529 42.8103 367.958C42.8103 368.855 43.1353 369.622 43.7723 370.246C44.4093 370.87 45.2023 371.182 46.1513 371.182L46.1773 371.169ZM44.4873 367.984C44.4873 367.529 44.6433 367.152 44.9553 366.84C45.2673 366.528 45.6573 366.372 46.1383 366.372C46.6193 366.372 47.0093 366.528 47.3213 366.84C47.6333 367.152 47.7893 367.542 47.7893 367.997C47.7893 368.478 47.6333 368.881 47.3213 369.206C47.0093 369.531 46.6063 369.687 46.1253 369.687C45.6443 369.687 45.2413 369.531 44.9293 369.206C44.6173 368.881 44.4613 368.478 44.4613 367.997L44.4873 367.984ZM52.8975 370.064C52.8975 369.739 52.7935 369.479 52.5855 369.271C52.3775 369.063 52.1045 368.959 51.7795 368.959C51.4545 368.959 51.1815 369.063 50.9735 369.271C50.7655 369.479 50.6615 369.752 50.6615 370.077C50.6615 370.389 50.7655 370.649 50.9865 370.857C51.2075 371.065 51.4805 371.169 51.8055 371.169C52.1305 371.169 52.4035 371.065 52.6245 370.857C52.8455 370.649 52.9495 370.389 52.9495 370.077L52.8975 370.064ZM52.9495 365.371C52.9495 365.046 52.8455 364.786 52.6375 364.578C52.4295 364.37 52.1565 364.266 51.8315 364.266C51.5065 364.266 51.2335 364.37 51.0255 364.578C50.8175 364.786 50.7135 365.059 50.7135 365.384C50.7135 365.696 50.8175 365.956 51.0385 366.164C51.2595 366.372 51.5325 366.476 51.8575 366.476C52.1825 366.476 52.4555 366.372 52.6765 366.164C52.8975 365.956 53.0015 365.696 53.0015 365.384L52.9495 365.371ZM61.1793 367.789V365.059C61.1793 364.006 60.8673 363.187 60.2433 362.589C59.6193 361.991 58.8003 361.692 57.7863 361.692C56.7723 361.692 55.9533 361.991 55.3293 362.589C54.7053 363.187 54.3933 364.019 54.3933 365.072V367.802C54.3933 368.868 54.7053 369.7 55.3293 370.298C55.9533 370.896 56.7723 371.195 57.7863 371.195C58.8003 371.195 59.6193 370.896 60.2433 370.298C60.8673 369.7 61.1793 368.868 61.1793 367.802V367.789ZM57.7733 363.317C58.3063 363.317 58.7223 363.473 59.0213 363.785C59.3203 364.084 59.4633 364.526 59.4633 365.098V367.815C59.4633 368.361 59.3073 368.79 59.0083 369.115C58.7093 369.427 58.2933 369.583 57.7603 369.583C57.2273 369.583 56.8113 369.427 56.5123 369.115C56.2133 368.816 56.0703 368.374 56.0703 367.815V365.098C56.0703 364.539 56.2133 364.097 56.5123 363.798C56.8113 363.486 57.2143 363.33 57.7343 363.33L57.7733 363.317ZM69.4567 367.789V365.059C69.4567 364.006 69.1447 363.187 68.5207 362.589C67.8967 361.991 67.0777 361.692 66.0637 361.692C65.0497 361.692 64.2307 361.991 63.6067 362.589C62.9827 363.187 62.6707 364.019 62.6707 365.072V367.802C62.6707 368.868 62.9827 369.7 63.6067 370.298C64.2307 370.896 65.0497 371.195 66.0637 371.195C67.0777 371.195 67.8967 370.896 68.5207 370.298C69.1447 369.7 69.4567 368.868 69.4567 367.802V367.789ZM66.0507 363.317C66.5837 363.317 66.9997 363.473 67.2987 363.785C67.5977 364.084 67.7407 364.526 67.7407 365.098V367.815C67.7407 368.361 67.5847 368.79 67.2857 369.115C66.9867 369.427 66.5707 369.583 66.0377 369.583C65.5047 369.583 65.0887 369.427 64.7897 369.115C64.4907 368.816 64.3477 368.374 64.3477 367.815V365.098C64.3477 364.539 64.4907 364.097 64.7897 363.798C65.0887 363.486 65.4917 363.33 66.0117 363.33L66.0507 363.317Z" fill="#514B7B"/>
<path d="M138.527 367.789V365.059C138.527 364.006 138.215 363.187 137.591 362.589C136.967 361.991 136.148 361.692 135.134 361.692C134.12 361.692 133.301 361.991 132.677 362.589C132.053 363.187 131.741 364.019 131.741 365.072V367.802C131.741 368.868 132.053 369.7 132.677 370.298C133.301 370.896 134.12 371.195 135.134 371.195C136.148 371.195 136.967 370.896 137.591 370.298C138.215 369.7 138.527 368.868 138.527 367.802V367.789ZM135.121 363.317C135.654 363.317 136.07 363.473 136.369 363.785C136.668 364.084 136.811 364.526 136.811 365.098V367.815C136.811 368.361 136.655 368.79 136.356 369.115C136.057 369.427 135.641 369.583 135.108 369.583C134.575 369.583 134.159 369.427 133.86 369.115C133.561 368.816 133.418 368.374 133.418 367.815V365.098C133.418 364.539 133.561 364.097 133.86 363.798C134.159 363.486 134.562 363.33 135.082 363.33L135.121 363.317ZM143.957 363.421L140.278 371H142.176L145.907 363.2V361.861H139.602V363.421H143.957ZM149.212 370.064C149.212 369.739 149.108 369.479 148.9 369.271C148.692 369.063 148.419 368.959 148.094 368.959C147.769 368.959 147.496 369.063 147.288 369.271C147.08 369.479 146.976 369.752 146.976 370.077C146.976 370.389 147.08 370.649 147.301 370.857C147.522 371.065 147.795 371.169 148.12 371.169C148.445 371.169 148.718 371.065 148.939 370.857C149.16 370.649 149.264 370.389 149.264 370.077L149.212 370.064ZM149.264 365.371C149.264 365.046 149.16 364.786 148.952 364.578C148.744 364.37 148.471 364.266 148.146 364.266C147.821 364.266 147.548 364.37 147.34 364.578C147.132 364.786 147.028 365.059 147.028 365.384C147.028 365.696 147.132 365.956 147.353 366.164C147.574 366.372 147.847 366.476 148.172 366.476C148.497 366.476 148.77 366.372 148.991 366.164C149.212 365.956 149.316 365.696 149.316 365.384L149.264 365.371ZM157.494 367.789V365.059C157.494 364.006 157.182 363.187 156.558 362.589C155.934 361.991 155.115 361.692 154.101 361.692C153.087 361.692 152.268 361.991 151.644 362.589C151.02 363.187 150.708 364.019 150.708 365.072V367.802C150.708 368.868 151.02 369.7 151.644 370.298C152.268 370.896 153.087 371.195 154.101 371.195C155.115 371.195 155.934 370.896 156.558 370.298C157.182 369.7 157.494 368.868 157.494 367.802V367.789ZM154.088 363.317C154.621 363.317 155.037 363.473 155.336 363.785C155.635 364.084 155.778 364.526 155.778 365.098V367.815C155.778 368.361 155.622 368.79 155.323 369.115C155.024 369.427 154.608 369.583 154.075 369.583C153.542 369.583 153.126 369.427 152.827 369.115C152.528 368.816 152.385 368.374 152.385 367.815V365.098C152.385 364.539 152.528 364.097 152.827 363.798C153.126 363.486 153.529 363.33 154.049 363.33L154.088 363.317ZM165.771 367.789V365.059C165.771 364.006 165.459 363.187 164.835 362.589C164.211 361.991 163.392 361.692 162.378 361.692C161.364 361.692 160.545 361.991 159.921 362.589C159.297 363.187 158.985 364.019 158.985 365.072V367.802C158.985 368.868 159.297 369.7 159.921 370.298C160.545 370.896 161.364 371.195 162.378 371.195C163.392 371.195 164.211 370.896 164.835 370.298C165.459 369.7 165.771 368.868 165.771 367.802V367.789ZM162.365 363.317C162.898 363.317 163.314 363.473 163.613 363.785C163.912 364.084 164.055 364.526 164.055 365.098V367.815C164.055 368.361 163.899 368.79 163.6 369.115C163.301 369.427 162.885 369.583 162.352 369.583C161.819 369.583 161.403 369.427 161.104 369.115C160.805 368.816 160.662 368.374 160.662 367.815V365.098C160.662 364.539 160.805 364.097 161.104 363.798C161.403 363.486 161.806 363.33 162.326 363.33L162.365 363.317Z" fill="#514B7B"/>
<path d="M235.527 367.789V365.059C235.527 364.006 235.215 363.187 234.591 362.589C233.967 361.991 233.148 361.692 232.134 361.692C231.12 361.692 230.301 361.991 229.677 362.589C229.053 363.187 228.741 364.019 228.741 365.072V367.802C228.741 368.868 229.053 369.7 229.677 370.298C230.301 370.896 231.12 371.195 232.134 371.195C233.148 371.195 233.967 370.896 234.591 370.298C235.215 369.7 235.527 368.868 235.527 367.802V367.789ZM232.121 363.317C232.654 363.317 233.07 363.473 233.369 363.785C233.668 364.084 233.811 364.526 233.811 365.098V367.815C233.811 368.361 233.655 368.79 233.356 369.115C233.057 369.427 232.641 369.583 232.108 369.583C231.575 369.583 231.159 369.427 230.86 369.115C230.561 368.816 230.418 368.374 230.418 367.815V365.098C230.418 364.539 230.561 364.097 230.86 363.798C231.159 363.486 231.562 363.33 232.082 363.33L232.121 363.317ZM243.44 368.348C243.44 367.867 243.323 367.425 243.089 367.022C242.855 366.619 242.517 366.294 242.088 366.047C242.387 365.813 242.621 365.527 242.79 365.202C242.959 364.877 243.037 364.526 243.037 364.149C243.037 363.447 242.764 362.862 242.218 362.394C241.672 361.926 240.983 361.692 240.138 361.692C239.293 361.692 238.591 361.926 238.045 362.394C237.499 362.862 237.226 363.447 237.226 364.149C237.226 364.526 237.304 364.877 237.473 365.202C237.642 365.527 237.876 365.813 238.175 366.047C237.746 366.294 237.408 366.619 237.174 367.022C236.94 367.425 236.823 367.867 236.823 368.335C236.823 369.154 237.122 369.83 237.733 370.363C238.344 370.896 239.137 371.169 240.112 371.169C241.087 371.169 241.88 370.909 242.491 370.376C243.102 369.843 243.401 369.167 243.401 368.348H243.44ZM238.773 364.292C238.773 363.954 238.903 363.668 239.15 363.447C239.397 363.226 239.722 363.109 240.125 363.109C240.528 363.109 240.853 363.226 241.1 363.447C241.347 363.668 241.464 363.954 241.464 364.305C241.464 364.656 241.334 364.942 241.087 365.163C240.84 365.384 240.515 365.501 240.112 365.501C239.709 365.501 239.384 365.384 239.137 365.163C238.89 364.942 238.76 364.656 238.76 364.318L238.773 364.292ZM238.487 368.296C238.487 367.88 238.63 367.542 238.929 367.269C239.228 366.996 239.618 366.866 240.099 366.866C240.58 366.866 240.97 367.009 241.269 367.282C241.568 367.555 241.711 367.893 241.711 368.322C241.711 368.725 241.555 369.063 241.256 369.336C240.957 369.609 240.567 369.752 240.086 369.752C239.605 369.752 239.228 369.622 238.929 369.349C238.63 369.076 238.474 368.738 238.474 368.335L238.487 368.296ZM247.024 370.064C247.024 369.739 246.92 369.479 246.712 369.271C246.504 369.063 246.231 368.959 245.906 368.959C245.581 368.959 245.308 369.063 245.1 369.271C244.892 369.479 244.788 369.752 244.788 370.077C244.788 370.389 244.892 370.649 245.113 370.857C245.334 371.065 245.607 371.169 245.932 371.169C246.257 371.169 246.53 371.065 246.751 370.857C246.972 370.649 247.076 370.389 247.076 370.077L247.024 370.064ZM247.076 365.371C247.076 365.046 246.972 364.786 246.764 364.578C246.556 364.37 246.283 364.266 245.958 364.266C245.633 364.266 245.36 364.37 245.152 364.578C244.944 364.786 244.84 365.059 244.84 365.384C244.84 365.696 244.944 365.956 245.165 366.164C245.386 366.372 245.659 366.476 245.984 366.476C246.309 366.476 246.582 366.372 246.803 366.164C247.024 365.956 247.128 365.696 247.128 365.384L247.076 365.371ZM255.306 367.789V365.059C255.306 364.006 254.994 363.187 254.37 362.589C253.746 361.991 252.927 361.692 251.913 361.692C250.899 361.692 250.08 361.991 249.456 362.589C248.832 363.187 248.52 364.019 248.52 365.072V367.802C248.52 368.868 248.832 369.7 249.456 370.298C250.08 370.896 250.899 371.195 251.913 371.195C252.927 371.195 253.746 370.896 254.37 370.298C254.994 369.7 255.306 368.868 255.306 367.802V367.789ZM251.9 363.317C252.433 363.317 252.849 363.473 253.148 363.785C253.447 364.084 253.59 364.526 253.59 365.098V367.815C253.59 368.361 253.434 368.79 253.135 369.115C252.836 369.427 252.42 369.583 251.887 369.583C251.354 369.583 250.938 369.427 250.639 369.115C250.34 368.816 250.197 368.374 250.197 367.815V365.098C250.197 364.539 250.34 364.097 250.639 363.798C250.938 363.486 251.341 363.33 251.861 363.33L251.9 363.317ZM263.584 367.789V365.059C263.584 364.006 263.272 363.187 262.648 362.589C262.024 361.991 261.205 361.692 260.191 361.692C259.177 361.692 258.358 361.991 257.734 362.589C257.11 363.187 256.798 364.019 256.798 365.072V367.802C256.798 368.868 257.11 369.7 257.734 370.298C258.358 370.896 259.177 371.195 260.191 371.195C261.205 371.195 262.024 370.896 262.648 370.298C263.272 369.7 263.584 368.868 263.584 367.802V367.789ZM260.178 363.317C260.711 363.317 261.127 363.473 261.426 363.785C261.725 364.084 261.868 364.526 261.868 365.098V367.815C261.868 368.361 261.712 368.79 261.413 369.115C261.114 369.427 260.698 369.583 260.165 369.583C259.632 369.583 259.216 369.427 258.917 369.115C258.618 368.816 258.475 368.374 258.475 367.815V365.098C258.475 364.539 258.618 364.097 258.917 363.798C259.216 363.486 259.619 363.33 260.139 363.33L260.178 363.317Z" fill="#514B7B"/>
<path d="M332.527 367.789V365.059C332.527 364.006 332.215 363.187 331.591 362.589C330.967 361.991 330.148 361.692 329.134 361.692C328.12 361.692 327.301 361.991 326.677 362.589C326.053 363.187 325.741 364.019 325.741 365.072V367.802C325.741 368.868 326.053 369.7 326.677 370.298C327.301 370.896 328.12 371.195 329.134 371.195C330.148 371.195 330.967 370.896 331.591 370.298C332.215 369.7 332.527 368.868 332.527 367.802V367.789ZM329.121 363.317C329.654 363.317 330.07 363.473 330.369 363.785C330.668 364.084 330.811 364.526 330.811 365.098V367.815C330.811 368.361 330.655 368.79 330.356 369.115C330.057 369.427 329.641 369.583 329.108 369.583C328.575 369.583 328.159 369.427 327.86 369.115C327.561 368.816 327.418 368.374 327.418 367.815V365.098C327.418 364.539 327.561 364.097 327.86 363.798C328.159 363.486 328.562 363.33 329.082 363.33L329.121 363.317ZM336.995 361.692C336.046 361.692 335.253 362.004 334.603 362.628C333.953 363.252 333.628 364.006 333.628 364.903C333.628 365.748 333.927 366.463 334.512 367.048C335.097 367.633 335.812 367.932 336.657 367.932C336.8 367.932 336.943 367.919 337.086 367.906C337.229 367.893 337.359 367.867 337.476 367.828L335.214 371.013H337.19L339.491 367.555C339.764 367.152 339.972 366.723 340.128 366.255C340.284 365.787 340.362 365.345 340.362 364.916C340.362 364.019 340.037 363.265 339.4 362.641C338.763 362.017 337.97 361.705 337.021 361.705L336.995 361.692ZM338.685 364.903C338.685 365.358 338.529 365.748 338.217 366.06C337.905 366.372 337.502 366.528 337.021 366.528C336.54 366.528 336.137 366.372 335.825 366.06C335.513 365.748 335.357 365.371 335.357 364.916C335.357 364.435 335.513 364.032 335.825 363.707C336.137 363.382 336.527 363.226 337.008 363.226C337.489 363.226 337.879 363.382 338.191 363.707C338.503 364.032 338.659 364.435 338.659 364.916L338.685 364.903ZM343.898 370.064C343.898 369.739 343.794 369.479 343.586 369.271C343.378 369.063 343.105 368.959 342.78 368.959C342.455 368.959 342.182 369.063 341.974 369.271C341.766 369.479 341.662 369.752 341.662 370.077C341.662 370.389 341.766 370.649 341.987 370.857C342.208 371.065 342.481 371.169 342.806 371.169C343.131 371.169 343.404 371.065 343.625 370.857C343.846 370.649 343.95 370.389 343.95 370.077L343.898 370.064ZM343.95 365.371C343.95 365.046 343.846 364.786 343.638 364.578C343.43 364.37 343.157 364.266 342.832 364.266C342.507 364.266 342.234 364.37 342.026 364.578C341.818 364.786 341.714 365.059 341.714 365.384C341.714 365.696 341.818 365.956 342.039 366.164C342.26 366.372 342.533 366.476 342.858 366.476C343.183 366.476 343.456 366.372 343.677 366.164C343.898 365.956 344.002 365.696 344.002 365.384L343.95 365.371ZM352.179 367.789V365.059C352.179 364.006 351.867 363.187 351.243 362.589C350.619 361.991 349.8 361.692 348.786 361.692C347.772 361.692 346.953 361.991 346.329 362.589C345.705 363.187 345.393 364.019 345.393 365.072V367.802C345.393 368.868 345.705 369.7 346.329 370.298C346.953 370.896 347.772 371.195 348.786 371.195C349.8 371.195 350.619 370.896 351.243 370.298C351.867 369.7 352.179 368.868 352.179 367.802V367.789ZM348.773 363.317C349.306 363.317 349.722 363.473 350.021 363.785C350.32 364.084 350.463 364.526 350.463 365.098V367.815C350.463 368.361 350.307 368.79 350.008 369.115C349.709 369.427 349.293 369.583 348.76 369.583C348.227 369.583 347.811 369.427 347.512 369.115C347.213 368.816 347.07 368.374 347.07 367.815V365.098C347.07 364.539 347.213 364.097 347.512 363.798C347.811 363.486 348.214 363.33 348.734 363.33L348.773 363.317ZM360.457 367.789V365.059C360.457 364.006 360.145 363.187 359.521 362.589C358.897 361.991 358.078 361.692 357.064 361.692C356.05 361.692 355.231 361.991 354.607 362.589C353.983 363.187 353.671 364.019 353.671 365.072V367.802C353.671 368.868 353.983 369.7 354.607 370.298C355.231 370.896 356.05 371.195 357.064 371.195C358.078 371.195 358.897 370.896 359.521 370.298C360.145 369.7 360.457 368.868 360.457 367.802V367.789ZM357.051 363.317C357.584 363.317 358 363.473 358.299 363.785C358.598 364.084 358.741 364.526 358.741 365.098V367.815C358.741 368.361 358.585 368.79 358.286 369.115C357.987 369.427 357.571 369.583 357.038 369.583C356.505 369.583 356.089 369.427 355.79 369.115C355.491 368.816 355.348 368.374 355.348 367.815V365.098C355.348 364.539 355.491 364.097 355.79 363.798C356.089 363.486 356.492 363.33 357.012 363.33L357.051 363.317Z" fill="#514B7B"/>
<path d="M425.705 371V361.861H422.572L422.182 363.421H424.002V371H425.705ZM434.339 367.789V365.059C434.339 364.006 434.027 363.187 433.403 362.589C432.779 361.991 431.96 361.692 430.946 361.692C429.932 361.692 429.113 361.991 428.489 362.589C427.865 363.187 427.553 364.019 427.553 365.072V367.802C427.553 368.868 427.865 369.7 428.489 370.298C429.113 370.896 429.932 371.195 430.946 371.195C431.96 371.195 432.779 370.896 433.403 370.298C434.027 369.7 434.339 368.868 434.339 367.802V367.789ZM430.933 363.317C431.466 363.317 431.882 363.473 432.181 363.785C432.48 364.084 432.623 364.526 432.623 365.098V367.815C432.623 368.361 432.467 368.79 432.168 369.115C431.869 369.427 431.453 369.583 430.92 369.583C430.387 369.583 429.971 369.427 429.672 369.115C429.373 368.816 429.23 368.374 429.23 367.815V365.098C429.23 364.539 429.373 364.097 429.672 363.798C429.971 363.486 430.374 363.33 430.894 363.33L430.933 363.317ZM438.092 370.064C438.092 369.739 437.988 369.479 437.78 369.271C437.572 369.063 437.299 368.959 436.974 368.959C436.649 368.959 436.376 369.063 436.168 369.271C435.96 369.479 435.856 369.752 435.856 370.077C435.856 370.389 435.96 370.649 436.181 370.857C436.402 371.065 436.675 371.169 437 371.169C437.325 371.169 437.598 371.065 437.819 370.857C438.04 370.649 438.144 370.389 438.144 370.077L438.092 370.064ZM438.144 365.371C438.144 365.046 438.04 364.786 437.832 364.578C437.624 364.37 437.351 364.266 437.026 364.266C436.701 364.266 436.428 364.37 436.22 364.578C436.012 364.786 435.908 365.059 435.908 365.384C435.908 365.696 436.012 365.956 436.233 366.164C436.454 366.372 436.727 366.476 437.052 366.476C437.377 366.476 437.65 366.372 437.871 366.164C438.092 365.956 438.196 365.696 438.196 365.384L438.144 365.371ZM446.374 367.789V365.059C446.374 364.006 446.062 363.187 445.438 362.589C444.814 361.991 443.995 361.692 442.981 361.692C441.967 361.692 441.148 361.991 440.524 362.589C439.9 363.187 439.588 364.019 439.588 365.072V367.802C439.588 368.868 439.9 369.7 440.524 370.298C441.148 370.896 441.967 371.195 442.981 371.195C443.995 371.195 444.814 370.896 445.438 370.298C446.062 369.7 446.374 368.868 446.374 367.802V367.789ZM442.968 363.317C443.501 363.317 443.917 363.473 444.216 363.785C444.515 364.084 444.658 364.526 444.658 365.098V367.815C444.658 368.361 444.502 368.79 444.203 369.115C443.904 369.427 443.488 369.583 442.955 369.583C442.422 369.583 442.006 369.427 441.707 369.115C441.408 368.816 441.265 368.374 441.265 367.815V365.098C441.265 364.539 441.408 364.097 441.707 363.798C442.006 363.486 442.409 363.33 442.929 363.33L442.968 363.317ZM454.651 367.789V365.059C454.651 364.006 454.339 363.187 453.715 362.589C453.091 361.991 452.272 361.692 451.258 361.692C450.244 361.692 449.425 361.991 448.801 362.589C448.177 363.187 447.865 364.019 447.865 365.072V367.802C447.865 368.868 448.177 369.7 448.801 370.298C449.425 370.896 450.244 371.195 451.258 371.195C452.272 371.195 453.091 370.896 453.715 370.298C454.339 369.7 454.651 368.868 454.651 367.802V367.789ZM451.245 363.317C451.778 363.317 452.194 363.473 452.493 363.785C452.792 364.084 452.935 364.526 452.935 365.098V367.815C452.935 368.361 452.779 368.79 452.48 369.115C452.181 369.427 451.765 369.583 451.232 369.583C450.699 369.583 450.283 369.427 449.984 369.115C449.685 368.816 449.542 368.374 449.542 367.815V365.098C449.542 364.539 449.685 364.097 449.984 363.798C450.283 363.486 450.686 363.33 451.206 363.33L451.245 363.317Z" fill="#514B7B"/>
<path d="M519.705 371V361.861H516.572L516.182 363.421H518.002V371H519.705ZM524.517 371V361.861H521.384L520.994 363.421H522.814V371H524.517ZM528.626 370.064C528.626 369.739 528.522 369.479 528.314 369.271C528.106 369.063 527.833 368.959 527.508 368.959C527.183 368.959 526.91 369.063 526.702 369.271C526.494 369.479 526.39 369.752 526.39 370.077C526.39 370.389 526.494 370.649 526.715 370.857C526.936 371.065 527.209 371.169 527.534 371.169C527.859 371.169 528.132 371.065 528.353 370.857C528.574 370.649 528.678 370.389 528.678 370.077L528.626 370.064ZM528.678 365.371C528.678 365.046 528.574 364.786 528.366 364.578C528.158 364.37 527.885 364.266 527.56 364.266C527.235 364.266 526.962 364.37 526.754 364.578C526.546 364.786 526.442 365.059 526.442 365.384C526.442 365.696 526.546 365.956 526.767 366.164C526.988 366.372 527.261 366.476 527.586 366.476C527.911 366.476 528.184 366.372 528.405 366.164C528.626 365.956 528.73 365.696 528.73 365.384L528.678 365.371ZM536.908 367.789V365.059C536.908 364.006 536.596 363.187 535.972 362.589C535.348 361.991 534.529 361.692 533.515 361.692C532.501 361.692 531.682 361.991 531.058 362.589C530.434 363.187 530.122 364.019 530.122 365.072V367.802C530.122 368.868 530.434 369.7 531.058 370.298C531.682 370.896 532.501 371.195 533.515 371.195C534.529 371.195 535.348 370.896 535.972 370.298C536.596 369.7 536.908 368.868 536.908 367.802V367.789ZM533.502 363.317C534.035 363.317 534.451 363.473 534.75 363.785C535.049 364.084 535.192 364.526 535.192 365.098V367.815C535.192 368.361 535.036 368.79 534.737 369.115C534.438 369.427 534.022 369.583 533.489 369.583C532.956 369.583 532.54 369.427 532.241 369.115C531.942 368.816 531.799 368.374 531.799 367.815V365.098C531.799 364.539 531.942 364.097 532.241 363.798C532.54 363.486 532.943 363.33 533.463 363.33L533.502 363.317ZM545.185 367.789V365.059C545.185 364.006 544.873 363.187 544.249 362.589C543.625 361.991 542.806 361.692 541.792 361.692C540.778 361.692 539.959 361.991 539.335 362.589C538.711 363.187 538.399 364.019 538.399 365.072V367.802C538.399 368.868 538.711 369.7 539.335 370.298C539.959 370.896 540.778 371.195 541.792 371.195C542.806 371.195 543.625 370.896 544.249 370.298C544.873 369.7 545.185 368.868 545.185 367.802V367.789ZM541.779 363.317C542.312 363.317 542.728 363.473 543.027 363.785C543.326 364.084 543.469 364.526 543.469 365.098V367.815C543.469 368.361 543.313 368.79 543.014 369.115C542.715 369.427 542.299 369.583 541.766 369.583C541.233 369.583 540.817 369.427 540.518 369.115C540.219 368.816 540.076 368.374 540.076 367.815V365.098C540.076 364.539 540.219 364.097 540.518 363.798C540.817 363.486 541.22 363.33 541.74 363.33L541.779 363.317Z" fill="#514B7B"/>
<path d="M610.705 371V361.861H607.572L607.182 363.421H609.002V371H610.705ZM619.105 371V369.44H615.023L617.09 367.529C617.779 366.892 618.247 366.346 618.494 365.891C618.741 365.436 618.858 364.942 618.858 364.409C618.858 363.59 618.572 362.927 618 362.42C617.441 361.913 616.687 361.666 615.764 361.666C614.776 361.666 613.97 361.965 613.333 362.55C612.709 363.135 612.371 363.889 612.319 364.838H614.061C614.1 364.357 614.256 363.98 614.542 363.694C614.828 363.408 615.205 363.265 615.673 363.265C616.089 363.265 616.427 363.382 616.674 363.616C616.921 363.85 617.051 364.149 617.051 364.526C617.051 364.799 616.973 365.059 616.83 365.332C616.687 365.605 616.44 365.891 616.089 366.216L612.449 369.648V370.961L619.105 371ZM622.686 370.064C622.686 369.739 622.582 369.479 622.374 369.271C622.166 369.063 621.893 368.959 621.568 368.959C621.243 368.959 620.97 369.063 620.762 369.271C620.554 369.479 620.45 369.752 620.45 370.077C620.45 370.389 620.554 370.649 620.775 370.857C620.996 371.065 621.269 371.169 621.594 371.169C621.919 371.169 622.192 371.065 622.413 370.857C622.634 370.649 622.738 370.389 622.738 370.077L622.686 370.064ZM622.738 365.371C622.738 365.046 622.634 364.786 622.426 364.578C622.218 364.37 621.945 364.266 621.62 364.266C621.295 364.266 621.022 364.37 620.814 364.578C620.606 364.786 620.502 365.059 620.502 365.384C620.502 365.696 620.606 365.956 620.827 366.164C621.048 366.372 621.321 366.476 621.646 366.476C621.971 366.476 622.244 366.372 622.465 366.164C622.686 365.956 622.79 365.696 622.79 365.384L622.738 365.371ZM630.967 367.789V365.059C630.967 364.006 630.655 363.187 630.031 362.589C629.407 361.991 628.588 361.692 627.574 361.692C626.56 361.692 625.741 361.991 625.117 362.589C624.493 363.187 624.181 364.019 624.181 365.072V367.802C624.181 368.868 624.493 369.7 625.117 370.298C625.741 370.896 626.56 371.195 627.574 371.195C628.588 371.195 629.407 370.896 630.031 370.298C630.655 369.7 630.967 368.868 630.967 367.802V367.789ZM627.561 363.317C628.094 363.317 628.51 363.473 628.809 363.785C629.108 364.084 629.251 364.526 629.251 365.098V367.815C629.251 368.361 629.095 368.79 628.796 369.115C628.497 369.427 628.081 369.583 627.548 369.583C627.015 369.583 626.599 369.427 626.3 369.115C626.001 368.816 625.858 368.374 625.858 367.815V365.098C625.858 364.539 626.001 364.097 626.3 363.798C626.599 363.486 627.002 363.33 627.522 363.33L627.561 363.317ZM639.245 367.789V365.059C639.245 364.006 638.933 363.187 638.309 362.589C637.685 361.991 636.866 361.692 635.852 361.692C634.838 361.692 634.019 361.991 633.395 362.589C632.771 363.187 632.459 364.019 632.459 365.072V367.802C632.459 368.868 632.771 369.7 633.395 370.298C634.019 370.896 634.838 371.195 635.852 371.195C636.866 371.195 637.685 370.896 638.309 370.298C638.933 369.7 639.245 368.868 639.245 367.802V367.789ZM635.839 363.317C636.372 363.317 636.788 363.473 637.087 363.785C637.386 364.084 637.529 364.526 637.529 365.098V367.815C637.529 368.361 637.373 368.79 637.074 369.115C636.775 369.427 636.359 369.583 635.826 369.583C635.293 369.583 634.877 369.427 634.578 369.115C634.279 368.816 634.136 368.374 634.136 367.815V365.098C634.136 364.539 634.279 364.097 634.578 363.798C634.877 363.486 635.28 363.33 635.8 363.33L635.839 363.317Z" fill="#514B7B"/>
<path d="M9.42191 270V268.44H5.33991L7.40691 266.529C8.09591 265.892 8.56391 265.346 8.81091 264.891C9.05791 264.436 9.17491 263.942 9.17491 263.409C9.17491 262.59 8.88891 261.927 8.31691 261.42C7.75791 260.913 7.00391 260.666 6.08091 260.666C5.09291 260.666 4.28691 260.965 3.64991 261.55C3.02591 262.135 2.68791 262.889 2.63591 263.838H4.37791C4.41691 263.357 4.57291 262.98 4.85891 262.694C5.14491 262.408 5.52191 262.265 5.98991 262.265C6.40591 262.265 6.74391 262.382 6.99091 262.616C7.23791 262.85 7.36791 263.149 7.36791 263.526C7.36791 263.799 7.28991 264.059 7.14691 264.332C7.00391 264.605 6.75691 264.891 6.40591 265.216L2.76591 268.648V269.961L9.42191 270Z" fill="#514B7B"/>
<path d="M2.46599 192.984V194.271H7.06799V196H8.73199V194.271H9.65499V192.75H8.73199V190.54L7.06799 190.93V192.75H4.49399L7.91299 186.861H5.94999L2.46599 192.984Z" fill="#514B7B"/>
<path d="M6.28281 122.169C7.23181 122.169 8.02481 121.857 8.67481 121.233C9.32481 120.609 9.64981 119.855 9.64981 118.958C9.64981 118.113 9.35081 117.398 8.76581 116.813C8.18081 116.228 7.46581 115.929 6.62081 115.929C6.47781 115.929 6.33481 115.942 6.19181 115.955C6.04881 115.968 5.91881 115.994 5.80181 116.033L8.06381 112.848H6.08781L3.78681 116.306C3.52681 116.696 3.31881 117.138 3.14981 117.619C2.99381 118.087 2.91581 118.529 2.91581 118.958C2.91581 119.855 3.24081 120.622 3.87781 121.246C4.51481 121.87 5.30781 122.182 6.25681 122.182L6.28281 122.169ZM4.59281 118.984C4.59281 118.529 4.74881 118.152 5.06081 117.84C5.37281 117.528 5.76281 117.372 6.24381 117.372C6.72481 117.372 7.11481 117.528 7.42681 117.84C7.73881 118.152 7.89481 118.542 7.89481 118.997C7.89481 119.478 7.73881 119.881 7.42681 120.206C7.11481 120.531 6.71181 120.687 6.23081 120.687C5.74981 120.687 5.34681 120.531 5.03481 120.206C4.72281 119.881 4.56681 119.478 4.56681 118.997L4.59281 118.984Z" fill="#514B7B"/>
<path d="M8.89348 307V297.861H5.76048L5.37048 299.421H7.19048V307H8.89348Z" fill="#514B7B"/>
<path d="M2.81364 230.322C2.87864 231.18 3.21664 231.869 3.80164 232.376C4.39964 232.896 5.17964 233.156 6.15464 233.156C7.12964 233.156 7.92264 232.896 8.50764 232.363C9.10564 231.83 9.40464 231.167 9.40464 230.374C9.40464 229.841 9.27464 229.386 9.02764 229.009C8.78064 228.632 8.41664 228.346 7.90964 228.151C8.29964 227.956 8.59864 227.683 8.80664 227.332C9.01464 226.981 9.11864 226.578 9.11864 226.11C9.11864 225.421 8.84564 224.836 8.29964 224.368C7.75364 223.9 7.03864 223.666 6.14164 223.666C5.21864 223.666 4.46464 223.926 3.89264 224.446C3.32064 224.966 3.00864 225.629 2.96964 226.422H4.68564C4.71164 226.058 4.85464 225.772 5.10164 225.564C5.34864 225.356 5.67364 225.252 6.07664 225.252C6.47964 225.252 6.80464 225.356 7.05164 225.564C7.29864 225.772 7.41564 226.045 7.41564 226.383C7.41564 226.76 7.29864 227.059 7.06464 227.28C6.81764 227.501 6.51864 227.618 6.14164 227.618H5.12764V228.866H6.08964C6.59664 228.866 6.98664 228.983 7.27264 229.217C7.55864 229.451 7.70164 229.789 7.70164 230.218C7.70164 230.608 7.55864 230.933 7.27264 231.193C6.98664 231.453 6.62264 231.583 6.16764 231.583C5.72564 231.583 5.36164 231.466 5.06264 231.232C4.76364 230.998 4.59464 230.699 4.55564 230.322H2.81364Z" fill="#514B7B"/>
<path d="M3.8512 149.861L3.3962 154.983L4.7742 155.152C4.9302 154.944 5.1252 154.788 5.3592 154.684C5.5932 154.58 5.8662 154.528 6.1652 154.528C6.6462 154.528 7.0362 154.671 7.3352 154.957C7.6342 155.243 7.7772 155.607 7.7772 156.062C7.7772 156.491 7.6212 156.855 7.3092 157.154C6.9842 157.453 6.6072 157.609 6.1522 157.609C5.7232 157.609 5.3592 157.492 5.0602 157.245C4.7612 156.998 4.5922 156.686 4.5402 156.296H2.7982C2.8632 157.141 3.2142 157.83 3.8512 158.363C4.4882 158.896 5.2682 159.169 6.1912 159.169C7.1142 159.169 7.8812 158.87 8.5052 158.272C9.1292 157.674 9.4412 156.933 9.4412 156.036C9.4412 155.113 9.1682 154.385 8.6092 153.839C8.0502 153.293 7.2962 153.02 6.3472 153.02C6.1262 153.02 5.9052 153.046 5.6842 153.098C5.4632 153.15 5.2422 153.215 5.0342 153.306L5.2162 151.408H8.8952V149.848L3.8512 149.861Z" fill="#514B7B"/>
<path d="M7.74836 77.421L4.06936 85H5.96736L9.69836 77.2V75.861H3.39336V77.421H7.74836Z" fill="#514B7B"/>
<path d="M9.41886 45.348C9.41886 44.867 9.30186 44.425 9.06786 44.022C8.83386 43.619 8.49586 43.294 8.06686 43.047C8.36586 42.813 8.59986 42.527 8.76886 42.202C8.93786 41.877 9.01586 41.526 9.01586 41.149C9.01586 40.447 8.74286 39.862 8.19686 39.394C7.65086 38.926 6.96186 38.692 6.11686 38.692C5.27186 38.692 4.56986 38.926 4.02386 39.394C3.47786 39.862 3.20486 40.447 3.20486 41.149C3.20486 41.526 3.28286 41.877 3.45186 42.202C3.62086 42.527 3.85486 42.813 4.15386 43.047C3.72486 43.294 3.38686 43.619 3.15286 44.022C2.91886 44.425 2.80186 44.867 2.80186 45.335C2.80186 46.154 3.10086 46.83 3.71186 47.363C4.32286 47.896 5.11586 48.169 6.09086 48.169C7.06586 48.169 7.85886 47.909 8.46986 47.376C9.08086 46.843 9.37986 46.167 9.37986 45.348H9.41886ZM4.75186 41.292C4.75186 40.954 4.88186 40.668 5.12886 40.447C5.37586 40.226 5.70086 40.109 6.10386 40.109C6.50686 40.109 6.83186 40.226 7.07886 40.447C7.32586 40.668 7.44286 40.954 7.44286 41.305C7.44286 41.656 7.31286 41.942 7.06586 42.163C6.81886 42.384 6.49386 42.501 6.09086 42.501C5.68786 42.501 5.36286 42.384 5.11586 42.163C4.86886 41.942 4.73886 41.656 4.73886 41.318L4.75186 41.292ZM4.46586 45.296C4.46586 44.88 4.60886 44.542 4.90786 44.269C5.20686 43.996 5.59686 43.866 6.07786 43.866C6.55886 43.866 6.94886 44.009 7.24786 44.282C7.54686 44.555 7.68986 44.893 7.68986 45.322C7.68986 45.725 7.53386 46.063 7.23486 46.336C6.93586 46.609 6.54586 46.752 6.06486 46.752C5.58386 46.752 5.20686 46.622 4.90786 46.349C4.60886 46.076 4.45286 45.738 4.45286 45.335L4.46586 45.296Z" fill="#514B7B"/>
<path d="M6.10081 1.692C5.15181 1.692 4.35881 2.004 3.70881 2.628C3.05881 3.252 2.73381 4.006 2.73381 4.903C2.73381 5.748 3.03281 6.463 3.61781 7.048C4.20281 7.633 4.91781 7.932 5.76281 7.932C5.90581 7.932 6.04881 7.919 6.19181 7.906C6.33481 7.893 6.46481 7.867 6.58181 7.828L4.31981 11.013H6.29581L8.59681 7.555C8.86981 7.152 9.07781 6.723 9.23381 6.255C9.38981 5.787 9.46781 5.345 9.46781 4.916C9.46781 4.019 9.14281 3.265 8.50581 2.641C7.86881 2.017 7.07581 1.705 6.12681 1.705L6.10081 1.692ZM7.79081 4.903C7.79081 5.358 7.63481 5.748 7.32281 6.06C7.01081 6.372 6.60781 6.528 6.12681 6.528C5.64581 6.528 5.24281 6.372 4.93081 6.06C4.61881 5.748 4.46281 5.371 4.46281 4.916C4.46281 4.435 4.61881 4.032 4.93081 3.707C5.24281 3.382 5.63281 3.226 6.11381 3.226C6.59481 3.226 6.98481 3.382 7.29681 3.707C7.60881 4.032 7.76481 4.435 7.76481 4.916L7.79081 4.903Z" fill="#514B7B"/>
<rect x="34" y="339" width="604" height="1" fill="#23203C"/>
<rect x="34" y="265" width="604" height="1" fill="#23203C"/>
<rect x="34" y="191" width="604" height="1" fill="#23203C"/>
<rect x="34" y="117" width="604" height="1" fill="#23203C"/>
<rect x="34" y="302" width="604" height="1" fill="#23203C"/>
<rect x="34" y="228" width="604" height="1" fill="#23203C"/>
<rect x="34" y="154" width="604" height="1" fill="#23203C"/>
<rect x="34" y="80" width="604" height="1" fill="#23203C"/>
<rect x="34" y="43" width="604" height="1" fill="#23203C"/>
<rect x="34" y="6" width="604" height="1" fill="#23203C"/>
<path d="M131.486 286.286C92.9122 291.389 66.3282 321.744 34 326.722V339H636.786V320.5V288V234.541C617.027 236.806 606.184 176.715 564.549 182.377C522.914 188.038 512.271 252.702 479.104 224.96C445.938 197.219 438.888 211.857 403.604 206.195C368.32 200.533 352.863 268.356 319.444 266.189C286.024 264.021 277.103 320.432 242.998 315.2C201.67 308.859 205.267 305.308 186.891 297.084C168.515 288.86 152.045 283.567 131.486 286.286Z" fill="url(#paint0_linear)"/>
<path d="M34 327C66.3282 322.012 92.9122 291.599 131.486 286.487C152.045 283.762 168.515 289.065 186.891 297.305C205.267 305.545 201.67 309.103 242.998 315.455C277.103 320.698 286.024 264.179 319.444 266.35C352.863 268.522 368.32 200.569 403.604 206.241C438.888 211.914 445.938 197.248 479.104 225.043C512.271 252.838 522.914 188.05 564.549 182.377C606.184 176.705 617.027 236.911 636.786 234.642" stroke="#7265C9" stroke-opacity="0.87" stroke-width="2" stroke-linecap="round" stroke-linejoin="round"/>
<defs>
<linearGradient id="paint0_linear" x1="401.5" y1="182" x2="401.5" y2="404.673" gradientUnits="userSpaceOnUse">
<stop stop-color="#7459D9" stop-opacity="0.1"/>
<stop offset="0.998978" stop-color="white" stop-opacity="0"/>
</linearGradient>
</defs>
</svg>
