<svg width="159" height="159" viewBox="0 0 159 159" fill="none" xmlns="http://www.w3.org/2000/svg">
<rect width="159" height="159" fill="#E5E5E5"/>
<rect width="1440" height="900" transform="translate(-163 -187)" fill="#141325"/>
<rect x="-32" y="-32" width="638" height="223" rx="10" fill="#23203C"/>
<circle cx="79.5" cy="79.5" r="74.5" stroke="#332F53" stroke-width="10"/>
<path d="M84.2056 5.14877C96.1258 5.9032 107.69 9.51261 117.923 15.6727C128.156 21.8327 136.758 30.3629 143.003 40.5439C149.249 50.7249 152.955 62.2584 153.809 74.1718C154.663 86.0853 152.641 98.0295 147.912 108.997C143.182 119.965 135.886 129.635 126.636 137.193C117.387 144.75 106.456 149.972 94.7653 152.419C83.0747 154.867 70.967 154.467 59.4631 151.255C47.9591 148.043 37.3962 142.111 28.6648 133.961" stroke="#7265C9" stroke-width="10" stroke-linecap="round" stroke-linejoin="round"/>
</svg>
